<svg id="Capa_1" data-name="Capa 1" xmlns="http://www.w3.org/2000/svg" viewBox="0 0 79.45 79.45"><defs><style>.cls-1{fill:none;isolation:isolate;}.cls-2{fill:#fff;}</style></defs><title>behance</title><path class="cls-1" transform="translate(0 0)"/><path class="cls-2" d="M29.51,41H22.59v8h6.79a8.17,8.17,0,0,0,1.78-.18,4.22,4.22,0,0,0,1.5-.61,3.07,3.07,0,0,0,1-1.15,4,4,0,0,0,.38-1.87A3.77,3.77,0,0,0,32.83,42,5.37,5.37,0,0,0,29.51,41Z" transform="translate(0 0)"/><path class="cls-2" d="M31.83,35.87a3,3,0,0,0,1.09-2.63,3.43,3.43,0,0,0-.35-1.66,2.63,2.63,0,0,0-1-1,4,4,0,0,0-1.4-.51,8.56,8.56,0,0,0-1.64-.14h-6v6.76H29A4.61,4.61,0,0,0,31.83,35.87Z" transform="translate(0 0)"/><path class="cls-2" d="M52.86,36.72a4.94,4.94,0,0,0-2.29.47,4.62,4.62,0,0,0-1.46,1.15,4.12,4.12,0,0,0-.77,1.47,6.56,6.56,0,0,0-.26,1.38h9.35a5.6,5.6,0,0,0-1.33-3.31A4.3,4.3,0,0,0,52.86,36.72Z" transform="translate(0 0)"/><path class="cls-2" d="M39.72,0A39.72,39.72,0,1,0,79.45,39.72,39.72,39.72,0,0,0,39.72,0Zm7.18,26.94H58.62v2.85H46.91ZM39.59,49.3a7.37,7.37,0,0,1-2.29,2.62A10.06,10.06,0,0,1,34,53.42a14.67,14.67,0,0,1-3.78.49h-14V25H29.85a17.79,17.79,0,0,1,3.77.37,8.23,8.23,0,0,1,2.92,1.19,5.59,5.59,0,0,1,1.89,2.21,7.77,7.77,0,0,1,.66,3.39,6.34,6.34,0,0,1-1,3.64,7.19,7.19,0,0,1-3,2.38,6.9,6.9,0,0,1,4,2.69,8.92,8.92,0,0,1,.47,8.43Zm23.6-4.48H48.08a5.86,5.86,0,0,0,1.42,4.06,5.86,5.86,0,0,0,6.72.39,3.7,3.7,0,0,0,1.54-1.86h5.06a9.61,9.61,0,0,1-3.73,5.4A10.86,10.86,0,0,1,53,54.45a12.06,12.06,0,0,1-4.47-.79,9.5,9.5,0,0,1-3.38-2.25,10.3,10.3,0,0,1-2.13-3.49,12.79,12.79,0,0,1-.75-4.46,12.28,12.28,0,0,1,.77-4.38,10.15,10.15,0,0,1,5.58-5.84A10.88,10.88,0,0,1,53,32.38a9.91,9.91,0,0,1,4.65,1,9.27,9.27,0,0,1,3.26,2.77,11.36,11.36,0,0,1,1.84,4A14.83,14.83,0,0,1,63.19,44.82Z" transform="translate(0 0)"/></svg>