<svg id="Capa_1" data-name="Capa 1" xmlns="http://www.w3.org/2000/svg" viewBox="0 0 79.45 79.45"><defs><style>.cls-1{fill:#fff;}</style></defs><title>Objetointeligentevectorial_b1faf871-fed0-43f4-9a2c-a611abc8d583</title><path class="cls-1" d="M606.4,0a39.72,39.72,0,1,0,39.72,39.72A39.72,39.72,0,0,0,606.4,0Zm21,42.36a15.46,15.46,0,0,1-1.85,4.49,10.08,10.08,0,0,1-3,3.13,7.39,7.39,0,0,1-4.17,1.15,6.52,6.52,0,0,1-1.79-.24,5.89,5.89,0,0,1-1.51-.66,5,5,0,0,1-1.19-1A4,4,0,0,1,613.1,48l-.24-.6h-1.12l-.71.37a10.73,10.73,0,0,1-1.15,1.28,8.26,8.26,0,0,1-1.44,1.06,7.61,7.61,0,0,1-1.74.72,7.72,7.72,0,0,1-2.09.27,9.49,9.49,0,0,1-3.85-.74A7.61,7.61,0,0,1,598,48.32,9.38,9.38,0,0,1,596.25,45a14.59,14.59,0,0,1-.62-4.39,15,15,0,0,1,.83-5.1,11.39,11.39,0,0,1,2.35-3.93,10.55,10.55,0,0,1,3.72-2.55,12.85,12.85,0,0,1,5-.92,24.67,24.67,0,0,1,2.57.14c.9.09,1.75.21,2.58.36s1.61.32,2.33.5c.43.11.83.22,1.18.33l-.57,11.3c0,.41-.06.85-.06,1.28v.78a9.33,9.33,0,0,0,.21,2.2,4.61,4.61,0,0,0,.64,1.53,2.44,2.44,0,0,0,1.09.94,2.82,2.82,0,0,0,1.18.25,3.28,3.28,0,0,0,2.43-1.06,6.83,6.83,0,0,0,1.44-2.43,16.5,16.5,0,0,0,.79-3.27,26.58,26.58,0,0,0,.27-3.87,19.49,19.49,0,0,0-1.15-6.88,15,15,0,0,0-3.23-5.17,13.92,13.92,0,0,0-4.94-3.23,16.87,16.87,0,0,0-6.13-1.1A20.11,20.11,0,0,0,600,22.3a16.41,16.41,0,0,0-5.93,4.34,18.87,18.87,0,0,0-3.59,6.54,26.27,26.27,0,0,0-1.21,8.15,23.45,23.45,0,0,0,1.05,7.31,14.47,14.47,0,0,0,3.19,5.49,13.8,13.8,0,0,0,5.24,3.39,20.16,20.16,0,0,0,7,1.14,29.11,29.11,0,0,0,3.4-.21c1.16-.14,2.3-.32,3.45-.56s2.27-.52,3.38-.85c.64-.19,1.27-.4,1.86-.61v3.53a29.65,29.65,0,0,1-5.23,1.6,32.4,32.4,0,0,1-6.82.68,26.26,26.26,0,0,1-9-1.42,17.75,17.75,0,0,1-6.56-4,17.57,17.57,0,0,1-4.08-6.46,25.48,25.48,0,0,1-1.43-8.81,28.27,28.27,0,0,1,.75-6.59,24.79,24.79,0,0,1,2.15-5.83,22.66,22.66,0,0,1,3.43-4.88,21,21,0,0,1,4.59-3.73,22.52,22.52,0,0,1,5.7-2.39,25.65,25.65,0,0,1,6.69-.84,22.49,22.49,0,0,1,8,1.39A17.52,17.52,0,0,1,626.5,28.82,22.41,22.41,0,0,1,628,37.19,22.89,22.89,0,0,1,627.37,42.36Z" transform="translate(-566.68 0)"/><path class="cls-1" d="M609.19,31.57a14.62,14.62,0,0,0-1.68-.09,6.36,6.36,0,0,0-3.36.86,6.78,6.78,0,0,0-2.21,2.2,9.29,9.29,0,0,0-1.18,3,15.41,15.41,0,0,0-.36,3.25,8.52,8.52,0,0,0,1.29,5.2,4.39,4.39,0,0,0,3.65,1.79,4.77,4.77,0,0,0,2.59-.7,5.24,5.24,0,0,0,1.75-1.92,10,10,0,0,0,1-2.69,21.72,21.72,0,0,0,.41-3.32l.39-7.11-.75-.19A11.29,11.29,0,0,0,609.19,31.57Z" transform="translate(-566.68 0)"/></svg>