<svg id="Capa_1" data-name="Capa 1" xmlns="http://www.w3.org/2000/svg" viewBox="0 0 79.45 79.45"><defs><style>.cls-1{fill:#fff;}</style></defs><title>Objetointeligentevectorial_90f4b167-aabc-47cb-92ac-c423d410f111</title><path class="cls-1" d="M417.51,1.8a39.72,39.72,0,1,0,39.72,39.72A39.72,39.72,0,0,0,417.51,1.8ZM406.93,56.58a.5.5,0,0,1-.51.5h-7.81a.5.5,0,0,1-.51-.5V31.11a.51.51,0,0,1,.51-.51h7.81a.51.51,0,0,1,.51.51Zm-4.41-28.75a4.41,4.41,0,1,1,4.41-4.41A4.41,4.41,0,0,1,402.52,27.83Zm35,10.79v18a.5.5,0,0,1-.5.5h-7.82a.5.5,0,0,1-.5-.5V42.21c0-2.77-.25-5-4-5A4.11,4.11,0,0,0,420.54,41V56.58a.5.5,0,0,1-.5.5h-7.82a.5.5,0,0,1-.5-.5V31.11a.5.5,0,0,1,.5-.51H420a.5.5,0,0,1,.5.51v2.46a10.59,10.59,0,0,1,7.82-3.34,9,9,0,0,1,9.18,6.68A12.36,12.36,0,0,1,437.56,38.62Z" transform="translate(-377.79 -1.8)"/></svg>