<?xml version="1.0" encoding="utf-8"?>
<!-- Generator: Adobe Illustrator 21.0.2, SVG Export Plug-In . SVG Version: 6.00 Build 0)  -->
<svg version="1.1" id="Capa_1" xmlns="http://www.w3.org/2000/svg" xmlns:xlink="http://www.w3.org/1999/xlink" x="0px" y="0px"
	 viewBox="0 0 149 80" style="enable-background:new 0 0 149 80;" xml:space="preserve">
<style type="text/css">
	.st0{fill:none;enable-background:new    ;}
	.st1{fill:#FFFFFF;}
</style>
<path class="st0" d="z"/>
<g>
	<g>
		<path class="st1" d="M127,8.2h-15.1c-0.5,0-1,0.4-1.1,0.9L98,61.3c-0.1,0.4,0,0.7,0.2,1c0.2,0.3,0.6,0.4,0.9,0.4h15.4
			c12.8,0,20.8-5.4,25.3-9.9c5.8-5.8,9.1-13.6,9.1-21.4C149,18.2,139.5,8.2,127,8.2z M114.8,12.9h11.7c10,0,17.5,8,17.5,18.6
			c0,14.9-12.7,26.6-29,26.6h-11.3L114.8,12.9z"/>
	</g>
	<g>
		<path class="st1" d="M0.6,79.2c-0.2,0-0.4-0.1-0.5-0.2C0,78.8,0,78.7,0,78.5l18.6-78C18.6,0.2,18.9,0,19.1,0H29
			c0.2,0,0.4,0.1,0.5,0.2c0.1,0.1,0.2,0.3,0.1,0.5L11.2,78.1c-0.2,0.6-0.7,1.1-1.4,1.1H0.6z"/>
		<path class="st1" d="M20.1,79.2h62.5c0.3,0,0.5-0.2,0.6-0.4l8-31.9c0.8-3,0.2-6.2-1.6-8.7c-1.9-2.7-5-4.2-8.2-4.2l-37.1,0
			c-0.5,0-1-0.2-1.3-0.5c-0.5-0.5-0.7-1.1-0.5-1.7l5.1-20.3h52.3c0.3,0,0.5-0.2,0.6-0.4l2.5-10.2c0-0.2,0-0.4-0.1-0.5
			S102.5,0,102.3,0H39c-0.3,0-0.5,0.2-0.6,0.4l-8,32.2c-0.8,3.2,0,6.5,2.1,9c2,2.4,5,3.7,8.1,3.7l36.9,0c0.5,0,1,0.2,1.3,0.5
			c0.5,0.5,0.7,1.1,0.5,1.7l-5.1,20.3H22.7c-0.3,0-0.5,0.2-0.5,0.4l-2.5,10.4C19.6,78.9,19.8,79.2,20.1,79.2z"/>
	</g>
</g>
</svg>
