<?xml version="1.0" encoding="utf-8"?>
<!-- Generator: Adobe Illustrator 21.0.2, SVG Export Plug-In . SVG Version: 6.00 Build 0)  -->
<svg version="1.1" id="Capa_1" xmlns="http://www.w3.org/2000/svg" xmlns:xlink="http://www.w3.org/1999/xlink" x="0px" y="0px"
	 viewBox="0 0 300 80" style="enable-background:new 0 0 300 80;" xml:space="preserve">
<style type="text/css">
	.st0{fill:none;enable-background:new    ;}
	.st1{fill:#FFFFFF;}
</style>
<path class="st0" d="z"/>
<g>
	<g>
		<path class="st1" d="M47.6,78.7c-0.2,0-0.3-0.1-0.5-0.2c-0.1-0.1-0.2-0.3-0.1-0.5L65.5,0.4C65.6,0.2,65.8,0,66.1,0h9.8
			c0.2,0,0.3,0.1,0.5,0.2c0.1,0.1,0.2,0.3,0.1,0.5L58.2,77.6c-0.2,0.6-0.7,1.1-1.4,1.1H47.6z"/>
		<path class="st1" d="M67,78.7h62.1c0.3,0,0.5-0.2,0.6-0.4l7.9-31.7c0.7-3,0.2-6.2-1.6-8.7c-1.9-2.6-4.9-4.2-8.2-4.2l-36.9,0
			c-0.5,0-1-0.2-1.3-0.5c-0.5-0.5-0.7-1.1-0.5-1.7l5-20.2h51.9c0.3,0,0.5-0.2,0.6-0.4l2.5-10.1c0-0.2,0-0.4-0.1-0.5
			C149,0.1,148.8,0,148.7,0H85.8c-0.3,0-0.5,0.2-0.6,0.4l-8,31.9c-0.8,3.2,0,6.4,2,8.9c2,2.4,5,3.6,8,3.6l36.6,0
			c0.5,0,1,0.2,1.3,0.5c0.5,0.5,0.7,1.1,0.5,1.7l-5,20.2H69.6c-0.3,0-0.5,0.2-0.5,0.4l-2.5,10.3C66.5,78.4,66.7,78.7,67,78.7z"/>
	</g>
	<path class="st1" d="M28.8,8.1h-15c-0.5,0-1,0.4-1.1,0.9L0,60.9c-0.1,0.3,0,0.7,0.2,1c0.2,0.3,0.6,0.4,0.9,0.4h15.3
		c12.7,0,20.7-5.3,25.2-9.8c5.7-5.7,9-13.5,9-21.2C50.7,18.1,41.3,8.1,28.8,8.1z M16.7,12.8h11.6c9.9,0,17.4,8,17.4,18.5
		c0,14.8-12.6,26.4-28.8,26.4H5.6L16.7,12.8z"/>
	<path class="st1" d="M271.2,7.3c-16.6,0-30.7,14.9-30.7,32.6c0,14,9.6,23.4,23.8,23.4c16.6,0,30.7-14.9,30.7-32.6
		C295,16.7,285.4,7.3,271.2,7.3z M271,11.9c14,0,18.9,10.1,18.9,18.8c0,13.5-10.2,27.9-25.4,27.9c-13.9,0-18.8-10.1-18.8-18.8
		C245.7,22.6,258.8,11.9,271,11.9z"/>
	<path class="st1" d="M181.7,32.3h-27.2l5.3-19.4h28.4c0.6,0,1-0.4,1.1-0.9l0.5-2.3c0.1-0.3,0-0.7-0.2-1c-0.2-0.3-0.6-0.4-0.9-0.4
		H157c-0.5,0-1,0.4-1.1,0.9L143.2,61c-0.1,0.3,0,0.7,0.2,1c0.2,0.3,0.6,0.4,0.9,0.4h31.7c0.6,0,1-0.4,1.1-0.9l0.5-2.3
		c0.1-0.3,0-0.7-0.2-1c-0.2-0.3-0.6-0.4-0.9-0.4h-27.8l4.6-20.8h27.8c0.5,0,1-0.4,1.1-0.9l0.5-2.3c0.1-0.3,0-0.7-0.2-1
		C182.4,32.5,182.1,32.3,181.7,32.3z"/>
	<path class="st1" d="M240.1,8.7c-0.2-0.3-0.6-0.4-0.9-0.4h-2.5c-0.1,0-0.2,0-0.3,0h-36.6c-0.5,0-1,0.4-1.1,0.9l-0.6,2.3
		c-0.1,0.3,0,0.7,0.2,1c0.2,0.3,0.6,0.4,0.9,0.4h35.4l-10.1,41.1L203.1,18c-0.2-0.4-0.6-0.6-1-0.6h-4c-0.5,0-1,0.4-1.1,0.9
		l-10.3,42.7c-0.1,0.3,0,0.7,0.2,1c0.2,0.3,0.6,0.4,0.9,0.4h2.5c0.5,0,1-0.4,1.1-0.9l9.4-38.3l22.3,38.6c0.2,0.4,0.6,0.6,1,0.6h2.5
		c0.5,0,1-0.4,1.1-0.9l12.6-51.9C240.4,9.3,240.3,9,240.1,8.7z"/>
</g>
</svg>
